<svg xmlns="http://www.w3.org/2000/svg" viewBox="0 0 963.55 1005.99"><defs><style>.cls-1,.cls-2{stroke:#231f20;stroke-miterlimit:10;stroke-width:0.75px;}.cls-2{fill:none;}</style></defs><g id="Layer_2" data-name="Layer 2"><g id="Layer_6" data-name="Layer 6"><path class="cls-1" d="M239.92,481c-1.64,1.3-3.13,3.42-4.95,3.75-11.95,2.16-23.91,4.64-36,5.68-23.15,2-37.47-16.18-30.88-38.34.82-2.75,1.64-5.49,2.49-8.22,2.76-8.92.51-16.2-6.33-22.65-9.56-9-8.69-15.75,2.32-22.88,9.29-6,9.28-7.77,0-14.54a98.24,98.24,0,0,1-9-7c-7-6.53-7.51-13.29-1.86-20.93,7.5-10.16,7.14-15.08-1.71-24.27-3.31-3.44-6.9-6.69-9.77-10.47-6.53-8.57-6-15.43,1.92-22.73,5.27-4.83,11.37-8.73,16.82-13.37,6.31-5.37,12.32-11.09,19-17.13-13.19-11.13-25.54-21.24-37.54-31.75-45.76-40-89.4-82.17-126-131C13.13,98,8.62,90.37,4,82.87,2.36,80.26.47,77.25.4,74.39.3,70.17.34,64.29,2.88,62.13s8.86-1.91,12.38-.27c14,6.57,27.05,15.71,41.52,20.94,38.1,13.78,76.76,26,115.2,38.86l32.48,10.85C218.41,116.94,231.09,101,245.57,87c26.74-25.91,57.21-47.14,90.19-64.28C389-5,444.08-6.89,499,16.77c57.54,24.81,104.09,63.61,138.23,116.55,23.94,37.11,28.26,76.6,14.51,118.63A379.77,379.77,0,0,1,614,332.86c-10.68,17.42-18.54,35.94-21.3,57.11,13.62.43,17.61,10,21.35,20.75,6.44,18.44,12.94,36.94,21,54.7,3.25,7.13,9.72,13.89,16.43,18.12,15.27,9.61,31,19,47.6,25.89,51.64,21.28,106.36,28,161.63,31.12,29.34,1.64,58.73,2.54,88.05,4.52,5.07.34,12.63,3.34,14.07,7,1.51,3.89-1.71,11.14-5,15.1-9.51,11.32-20.3,21.56-30.25,32.52-8,8.87-16,18-17.11,30.72A59.9,59.9,0,0,0,911.3,646c2.4,13-4.38,24-17.54,25a84.17,84.17,0,0,1-27.52-2.51c-32.15-8.69-61-24.89-88.77-42.68-11.3-7.25-20.57-8.91-31.61-1.74-2.17,1.42-4.78,2.16-7.13,3.33-8.76,4.36-11.7,10.5-9.44,20,.83,3.48,2.53,6.82,2.89,10.32.29,2.81.12,7-1.6,8.35-2.09,1.69-6.58,2.36-9,1.26a75.13,75.13,0,0,1-16.43-10c-33.53-27.19-59-61.07-79.94-98.45-17.34-30.91-31.25-63.28-39.1-98-2-9-3.94-18.24,0-27.49.82-1.93,0-4.61-.27-6.94-.91-9-1.89-17.95-2.77-26.26-13.95-2.12-28.28-3.13-42-6.59-38.18-9.62-72.8-27.61-105-49.7-33.88-23.22-67.23-47.32-99.62-72.57a768.37,768.37,0,0,1-119.57-116c-2.61-3.14-5.88-5.73-9.51-9.21-8.6,16.19-12.86,31.7-11.65,48.68,1,14.28,1.51,28.59,2.17,42.89a11.22,11.22,0,0,1-.48,5c-3.93,8.89,0,13.71,7.27,19.11,43.18,32.19,89.25,59.88,134.82,88.38C397.94,386.7,454,426.43,503.36,475,572,542.64,621.85,622.48,658.47,711.12c20.94,50.66,34.82,103.54,50.08,156,8,27.59,17.82,54.46,34.24,78.43,15.42,22.49,34.38,40.3,61.64,47.36,28.2,7.3,52.54-.28,73.07-20.08,12.45-12,16.21-27.26,9.76-43.43-6.3-15.79-20.11-21.57-36.17-22.52-9-.52-15.94,4.22-22.44,9.68-2.09,1.76-4,3.76-6.49,5,5.85-9.1,13.5-16.31,24.62-17.85,19.07-2.62,37,6.28,45.07,21.43,8.19,15.42,5.67,35.87-6.21,50.41-24.87,30.43-66.93,38.64-104.88,20.65-28.82-13.66-47.28-37.39-62.29-64.27-16.55-29.62-26-62-35.5-94.31-20.37-69.41-46.26-136.44-82.1-199.52-49.75-87.52-116.42-159.7-198.14-217.79C358,388.47,311.26,359.4,265.8,328.54c-26.85-18.24-53-37.56-79-56.08-11.71,9.47-24,19.19-36,29.24-7,5.87-7.25,9.84-1.44,17.07,3,3.71,6.59,6.92,9.81,10.45,9.12,10,9.46,18.2,1.28,28.7-5.25,6.75-5,10.66,1.61,16.43,3.58,3.13,7.72,5.66,11.29,8.81,6.82,6,6.32,11.84-1.19,16.87-1.19.79-2.42,1.52-3.62,2.31-8.22,5.38-8.91,8.77-1.67,15.58,9.08,8.54,10.19,18.33,6.62,29.47-1.17,3.63-2.32,7.28-3.21,11-2.93,12.24,4.77,24.72,17.12,28,14.13,3.8,27.91,1.36,41.63-2.24,3.69-1,7.34-2.08,11-3.13ZM212.66,134.9c4.7,4.45,8.38,7.22,11.17,10.7C270.53,203.75,325.59,253,385.2,297.38c37.58,28,75.47,55.54,118.62,74.68,23.25,10.31,47,18.82,72.86,19.36,5.64.12,8.62-1.27,9.52-7.43,2.68-18.46,10.29-35.14,19.38-51.28,9-16,19.06-31.64,26-48.53a360.83,360.83,0,0,0,19.2-60.53c7.28-33.65-4.38-63.73-22.84-91.32-31.08-46.43-73-80.81-123-104.63C452.2,2.62,398.22,1.05,345.16,27a379.67,379.67,0,0,0-107.35,78C228.77,114.3,221,124.9,212.66,134.9ZM956.71,555.82c-.38-.89-.77-1.78-1.15-2.68-8-.85-16-2.06-24-2.49-48.66-2.65-97.45-3.5-145.71-11.36-38.59-6.29-76.07-16-111-34.2L651,492.65c16.82,24.88,37.77,43.16,62.25,56.91,18,10.14,37.48,17.77,56.14,26.82a111.19,111.19,0,0,1,19.1,11.16c6.4,4.88,5.87,11.23-.5,16.16-3,2.32-6.36,4.14-9.69,6.28.67.7,1.05,1.38,1.62,1.66,26.47,13.17,52.67,26.92,79.58,39.11,9,4.09,19.81,4.59,29.9,6,4,.54,9.06-1.25,7.93-6.71-5-24,5.57-41.69,22.27-57.08,9.14-8.42,18.45-16.66,27.38-25.29C950.6,564.11,953.48,559.78,956.71,555.82ZM200.78,144.06C139.83,121.85,76.27,112.23,20,81.1,66.58,147.14,125.9,200,189.83,249c1.49-10.12,3.07-20,1.86-29.45C188.42,193.82,186.56,168.54,200.78,144.06Zm553,467.79c-9.13-6.3-17-11.63-24.73-17.06-37.43-26.18-73.55-54.06-102.53-89.67-13.1-16.09-23.38-34.48-34.36-50.95,2.71,9.72,4.65,21.5,9.22,32.15,9.1,21.19,18.7,42.27,29.8,62.47,20.6,37.49,46.71,70.86,79.34,98.83,2.7,2.32,5.76,4.22,10.32,7.53C712.6,625.18,733.33,619,753.82,611.85Zm32.27-17.71c-6.44-3.69-12-7.18-17.84-10.17-23.31-12-47.25-22.84-69.88-36a149.8,149.8,0,0,1-52.14-51C634,477.32,615.17,464.06,601,446.31a30.73,30.73,0,0,0,2.22,7.57c8.46,21.86,23.11,39.64,39.12,56,34.76,35.47,75.3,63.68,117.35,89.75C770,606,775.77,605,786.09,594.14Zm-165-136.93,1-.61c-5.78-16.82-11.47-33.68-17.46-50.44a15.29,15.29,0,0,0-5-6.72,8.5,8.5,0,0,0-6.64-1.07c-1,.31-1.77,3.6-1.69,5.5.51,11.93-.2,23.79,11.52,32.49C610,441.75,615,450.16,621.05,457.21Z"/><path class="cls-1" d="M240,481.05l49.29-14,.48,1.53c-9.45,2.82-18.83,5.91-28.37,8.35-7,1.8-14.29,2.74-21.47,4Z"/><path class="cls-2" d="M212.66,134.9c8.33-10,16.11-20.6,25.15-30A379.67,379.67,0,0,1,345.16,27c53.06-25.91,107-24.34,159.75.74,50.06,23.82,91.95,58.2,123,104.63,18.46,27.59,30.12,57.67,22.84,91.32a360.83,360.83,0,0,1-19.2,60.53c-6.94,16.89-17,32.54-26,48.53-9.09,16.14-16.7,32.82-19.38,51.28-.9,6.16-3.88,7.55-9.52,7.43-25.89-.54-49.61-9.05-72.86-19.36-43.15-19.14-81-46.7-118.62-74.68C325.59,253,270.53,203.75,223.83,145.6,221,142.12,217.36,139.35,212.66,134.9Z"/><path class="cls-2" d="M956.71,555.82c-3.23,4-6.11,8.29-9.76,11.81-8.93,8.63-18.24,16.87-27.38,25.29C902.87,608.31,892.32,626,897.3,650c1.13,5.46-3.92,7.25-7.93,6.71-10.09-1.37-20.87-1.87-29.9-6-26.91-12.19-53.11-25.94-79.58-39.11-.57-.28-.95-1-1.62-1.66,3.33-2.14,6.71-4,9.69-6.28,6.37-4.93,6.9-11.28.5-16.16a111.19,111.19,0,0,0-19.1-11.16c-18.66-9-38.09-16.68-56.14-26.82-24.48-13.75-45.43-32-62.25-56.91l23.87,12.44c34.89,18.2,72.37,27.91,111,34.2,48.26,7.86,97.05,8.71,145.71,11.36,8,.43,16,1.64,24,2.49C955.94,554,956.33,554.93,956.71,555.82Z"/><path class="cls-2" d="M200.78,144.06c-14.22,24.48-12.36,49.76-9.09,75.44,1.21,9.49-.37,19.33-1.86,29.45C125.9,200,66.58,147.14,20,81.1,76.27,112.23,139.83,121.85,200.78,144.06Z"/><path class="cls-2" d="M753.82,611.85c-20.49,7.18-41.22,13.33-32.94,43.3-4.56-3.31-7.62-5.21-10.32-7.53-32.63-28-58.74-61.34-79.34-98.83-11.1-20.2-20.7-41.28-29.8-62.47-4.57-10.65-6.51-22.43-9.22-32.15,11,16.47,21.26,34.86,34.36,50.95,29,35.61,65.1,63.49,102.53,89.67C736.86,600.22,744.69,605.55,753.82,611.85Z"/><path class="cls-2" d="M786.09,594.14C775.77,605,770,606,759.68,599.6c-42-26.07-82.59-54.28-117.35-89.75-16-16.33-30.66-34.11-39.12-56a30.73,30.73,0,0,1-2.22-7.57c14.18,17.75,33,31,45.24,50.68a149.8,149.8,0,0,0,52.14,51c22.63,13.12,46.57,24,69.88,36C774.08,587,779.65,590.45,786.09,594.14Z"/><path class="cls-2" d="M621.05,457.21c-6-7-11-15.46-18.31-20.85-11.72-8.7-11-20.56-11.52-32.49-.08-1.9.64-5.19,1.69-5.5a8.5,8.5,0,0,1,6.64,1.07,15.29,15.29,0,0,1,5,6.72c6,16.76,11.68,33.62,17.46,50.44Z"/></g></g></svg>