<svg xmlns="http://www.w3.org/2000/svg" viewBox="0 0 963.8 1006.24"><defs><style>.cls-1{fill:#fff;}.cls-1,.cls-2{stroke:#fff;stroke-miterlimit:10;}.cls-2{fill:none;}</style></defs><g id="Layer_2" data-name="Layer 2"><g id="Layer_6" data-name="Layer 6"><path class="cls-1" d="M240.05,481.1c-1.65,1.29-3.14,3.42-5,3.75-12,2.16-23.92,4.64-36,5.68-23.14,2-37.46-16.19-30.87-38.35.81-2.74,1.63-5.48,2.48-8.22,2.77-8.91.52-16.19-6.33-22.64-9.56-9-8.69-15.75,2.32-22.88,9.3-6,9.29-7.78,0-14.55a98.39,98.39,0,0,1-9-7c-7-6.53-7.51-13.29-1.87-20.94,7.5-10.16,7.14-15.07-1.7-24.27-3.32-3.44-6.9-6.68-9.78-10.46-6.52-8.57-6-15.44,1.93-22.74,5.26-4.83,11.36-8.73,16.82-13.36,6.3-5.37,12.31-11.1,19-17.13-13.18-11.14-25.53-21.25-37.53-31.75-45.77-40.05-89.4-82.17-126-131C13.26,98.14,8.74,90.5,4.1,83,2.48,80.38.6,77.38.53,74.51.43,70.29.46,64.41,3,62.25s8.85-1.91,12.37-.26c14.05,6.56,27.06,15.7,41.52,20.93,38.1,13.78,76.76,26,115.2,38.87l32.48,10.85c13.95-15.57,26.63-31.47,41.12-45.51C272.43,61.21,302.91,40,335.88,22.84,389.12-4.84,444.2-6.77,499.1,16.9c57.55,24.8,104.1,63.6,138.24,116.54,23.94,37.12,28.25,76.61,14.51,118.64A381,381,0,0,1,614.09,333c-10.69,17.42-18.55,35.93-21.3,57.11,13.61.42,17.6,10,21.34,20.74,6.44,18.44,12.94,37,21,54.7,3.24,7.13,9.71,13.9,16.42,18.12,15.27,9.62,31,19,47.6,25.9,51.65,21.28,106.37,28,161.63,31.11,29.35,1.65,58.74,2.55,88.06,4.53,5.07.34,12.63,3.33,14.07,7,1.51,3.88-1.72,11.13-5,15.09-9.52,11.32-20.3,21.56-30.26,32.53-8,8.86-16,18-17.1,30.72a59.07,59.07,0,0,0,.91,15.58c2.4,13-4.38,24-17.55,25a83.84,83.84,0,0,1-27.51-2.51c-32.15-8.69-61-24.88-88.77-42.68C766.3,618.68,757,617,746,624.19c-2.18,1.41-4.79,2.15-7.14,3.32-8.75,4.36-11.7,10.51-9.44,20,.83,3.48,2.54,6.81,2.9,10.31.29,2.81.12,7-1.6,8.35-2.1,1.7-6.59,2.37-9.05,1.26a74.82,74.82,0,0,1-16.43-10c-33.53-27.18-59-61.06-79.93-98.45C608,528.05,594,495.69,586.2,461c-2.05-9-3.94-18.24,0-27.49.82-1.92,0-4.61-.27-6.93-.91-9-1.88-17.95-2.76-26.27-14-2.11-28.28-3.13-42-6.58-38.18-9.62-72.79-27.62-105-49.7-33.87-23.23-67.23-47.32-99.61-72.58A768.83,768.83,0,0,1,217,155.46c-2.6-3.15-5.87-5.73-9.5-9.22-8.61,16.19-12.86,31.71-11.65,48.69,1,14.27,1.51,28.59,2.17,42.89a11.53,11.53,0,0,1-.48,5c-3.94,8.89,0,13.71,7.26,19.11C248,294.07,294,321.77,339.6,350.27c58.46,36.56,114.55,76.29,163.88,124.89C572.11,542.76,622,622.61,658.6,711.24c20.93,50.67,34.82,103.55,50.08,156,8,27.6,17.81,54.46,34.23,78.43,15.42,22.5,34.39,40.3,61.65,47.36,28.2,7.3,52.53-.27,73.06-20.07,12.46-12,16.22-27.26,9.76-43.44-6.3-15.79-20.1-21.57-36.17-22.51-9-.53-15.93,4.22-22.43,9.67-2.1,1.76-4,3.76-6.5,5,5.85-9.11,13.51-16.32,24.63-17.85,19.06-2.63,37,6.27,45.07,21.42,8.19,15.42,5.67,35.87-6.21,50.41-24.87,30.43-66.93,38.65-104.89,20.66-28.82-13.66-47.27-37.39-62.29-64.28-16.54-29.61-26-62-35.49-94.3C662.72,768.32,636.84,701.28,601,638.21c-49.74-87.52-116.42-159.7-198.14-217.8-44.76-31.81-91.47-60.88-136.92-91.74-26.86-18.24-53-37.56-79-56.09-11.7,9.48-24,19.19-36,29.24-7,5.88-7.25,9.84-1.43,17.08,3,3.71,6.58,6.91,9.8,10.44,9.12,10,9.47,18.2,1.28,28.71-5.25,6.74-5,10.66,1.61,16.42,3.59,3.14,7.72,5.66,11.3,8.81,6.82,6,6.32,11.85-1.19,16.87-1.19.8-2.43,1.53-3.63,2.31-8.21,5.39-8.91,8.77-1.67,15.58,9.09,8.55,10.2,18.34,6.62,29.47-1.16,3.63-2.32,7.28-3.21,11-2.93,12.24,4.78,24.72,17.12,28.05,14.14,3.8,27.92,1.36,41.64-2.24,3.68-1,7.33-2.08,11-3.13ZM212.79,135c4.69,4.46,8.37,7.23,11.17,10.71,46.7,58.14,101.76,107.4,161.37,151.78,37.57,28,75.46,55.53,118.62,74.68,23.25,10.31,47,18.82,72.86,19.36,5.64.12,8.61-1.27,9.51-7.43,2.69-18.47,10.29-35.15,19.39-51.28s19.06-31.64,26-48.53a360.83,360.83,0,0,0,19.2-60.53c7.27-33.66-4.38-63.74-22.85-91.33C597,86,555.09,51.64,505,27.83,452.32,2.75,398.34,1.18,345.28,27.09a379.76,379.76,0,0,0-107.34,78C228.89,114.42,221.11,125,212.79,135ZM956.84,555.94l-1.16-2.67c-8-.85-16-2.06-24-2.5-48.66-2.64-97.44-3.49-145.71-11.36-38.59-6.28-76.07-16-111-34.2L651.1,492.78c16.82,24.87,37.77,43.16,62.25,56.91,18,10.13,37.47,17.77,56.14,26.82a111.52,111.52,0,0,1,19.1,11.15c6.39,4.89,5.86,11.23-.5,16.17-3,2.32-6.36,4.14-9.7,6.27.68.71,1.06,1.38,1.63,1.67,26.46,13.17,52.67,26.91,79.57,39.1,9,4.09,19.82,4.59,29.9,6,4,.55,9.07-1.25,7.93-6.71-5-24,5.58-41.68,22.28-57.07,9.14-8.42,18.44-16.67,27.38-25.29C950.73,564.23,953.61,559.9,956.84,555.94ZM200.91,144.19C140,122,76.39,112.35,20.1,81.23,66.7,147.26,126,200.09,190,249.08c1.49-10.13,3.07-20,1.86-29.46C188.55,193.94,186.68,168.67,200.91,144.19ZM754,612c-9.14-6.29-17-11.63-24.74-17.06-37.43-26.17-73.55-54-102.52-89.66-13.1-16.1-23.39-34.49-34.36-51,2.7,9.73,4.64,21.5,9.21,32.15,9.1,21.19,18.7,42.28,29.8,62.47,20.61,37.49,46.72,70.86,79.35,98.84,2.7,2.31,5.75,4.22,10.31,7.52C712.72,625.3,733.45,619.16,754,612Zm32.26-17.7c-6.43-3.69-12-7.18-17.84-10.18-23.3-12-47.24-22.84-69.88-36a149.89,149.89,0,0,1-52.14-51c-12.22-19.67-31.06-32.94-45.24-50.69a31.38,31.38,0,0,0,2.22,7.58c8.46,21.85,23.11,39.64,39.12,56,34.77,35.46,75.3,63.67,117.36,89.75C770.14,606.14,775.89,605.1,786.21,594.27Zm-165-136.94,1-.6c-5.79-16.83-11.48-33.69-17.47-50.44a15.22,15.22,0,0,0-5-6.73A8.44,8.44,0,0,0,593,398.5c-1,.31-1.78,3.59-1.69,5.5.5,11.93-.2,23.79,11.52,32.49C610.13,441.88,615.15,450.28,621.18,457.33Z"/><path class="cls-1" d="M240.16,481.18l49.29-14c.16.51.31,1,.47,1.54-9.45,2.81-18.82,5.91-28.37,8.35-7,1.8-14.28,2.74-21.47,4Z"/><path class="cls-2" d="M212.79,135c8.32-10,16.1-20.6,25.15-30a379.76,379.76,0,0,1,107.34-78c53.06-25.91,107-24.34,159.75.74,50.06,23.81,92,58.19,123,104.62,18.47,27.59,30.12,57.67,22.85,91.33a360.83,360.83,0,0,1-19.2,60.53c-6.94,16.89-17,32.53-26,48.53s-16.7,32.81-19.39,51.28c-.9,6.16-3.87,7.55-9.51,7.43-25.9-.54-49.61-9.05-72.86-19.36C460.79,353,422.9,325.48,385.33,297.51,325.72,253.13,270.66,203.87,224,145.73,221.16,142.25,217.48,139.48,212.79,135Z"/><path class="cls-2" d="M956.84,555.94c-3.23,4-6.11,8.29-9.76,11.82-8.94,8.62-18.24,16.87-27.38,25.29-16.7,15.39-27.26,33.06-22.28,57.07,1.14,5.46-3.92,7.26-7.93,6.71-10.08-1.37-20.86-1.87-29.9-6-26.9-12.19-53.11-25.93-79.57-39.1-.57-.29-.95-1-1.63-1.67,3.34-2.13,6.71-4,9.7-6.27,6.36-4.94,6.89-11.28.5-16.17a111.52,111.52,0,0,0-19.1-11.15c-18.67-9-38.1-16.69-56.14-26.82-24.48-13.75-45.43-32-62.25-56.91L675,505.21c34.89,18.2,72.37,27.92,111,34.2,48.27,7.87,97.05,8.72,145.71,11.36,8,.44,16,1.65,24,2.5Z"/><path class="cls-2" d="M200.91,144.19c-14.23,24.48-12.36,49.75-9.09,75.43,1.21,9.49-.37,19.33-1.86,29.46C126,200.09,66.7,147.26,20.1,81.23,76.39,112.35,140,122,200.91,144.19Z"/><path class="cls-2" d="M754,612c-20.5,7.19-41.23,13.33-33,43.3-4.56-3.3-7.61-5.21-10.31-7.52-32.63-28-58.74-61.35-79.35-98.84-11.1-20.19-20.7-41.28-29.8-62.47C597,475.79,595,464,592.33,454.29c11,16.47,21.26,34.86,34.36,51,29,35.61,65.09,63.49,102.52,89.66C737,600.34,744.81,605.68,754,612Z"/><path class="cls-2" d="M786.21,594.27c-10.32,10.83-16.07,11.87-26.4,5.46-42.06-26.08-82.59-54.29-117.36-89.75-16-16.33-30.66-34.12-39.12-56a31.38,31.38,0,0,1-2.22-7.58c14.18,17.75,33,31,45.24,50.69a149.89,149.89,0,0,0,52.14,51c22.64,13.11,46.58,24,69.88,36C774.2,587.09,779.78,590.58,786.21,594.27Z"/><path class="cls-2" d="M621.18,457.33c-6-7.05-11-15.45-18.31-20.84-11.72-8.7-11-20.56-11.52-32.49-.09-1.91.64-5.19,1.69-5.5a8.44,8.44,0,0,1,6.63,1.06,15.22,15.22,0,0,1,5,6.73c6,16.75,11.68,33.61,17.47,50.44Z"/></g></g></svg>